<?xml version="1.0" encoding="UTF-8" standalone="no"?>
<svg
   xmlns:dc="http://purl.org/dc/elements/1.1/"
   xmlns:cc="http://creativecommons.org/ns#"
   xmlns:rdf="http://www.w3.org/1999/02/22-rdf-syntax-ns#"
   xmlns:svg="http://www.w3.org/2000/svg"
   xmlns="http://www.w3.org/2000/svg"
   xmlns:sodipodi="http://sodipodi.sourceforge.net/DTD/sodipodi-0.dtd"
   xmlns:inkscape="http://www.inkscape.org/namespaces/inkscape"
   width="124.22952"
   height="119.94794"
   version="1.1"
   id="svg10"
   sodipodi:docname="emoji_u1f4be.svg"
   inkscape:version="0.92.1 r">
  <metadata
     id="metadata16">
    <rdf:RDF>
      <cc:Work
         rdf:about="">
        <dc:format>image/svg+xml</dc:format>
        <dc:type
           rdf:resource="http://purl.org/dc/dcmitype/StillImage" />
        <dc:title></dc:title>
      </cc:Work>
    </rdf:RDF>
  </metadata>
  <defs
     id="defs14" />
  <sodipodi:namedview
     pagecolor="#ffffff"
     bordercolor="#666666"
     borderopacity="1"
     objecttolerance="10"
     gridtolerance="10"
     guidetolerance="10"
     inkscape:pageopacity="0"
     inkscape:pageshadow="2"
     inkscape:window-width="1366"
     inkscape:window-height="739"
     id="namedview12"
     showgrid="false"
     inkscape:zoom="3.6875"
     inkscape:cx="22.942791"
     inkscape:cy="51.552236"
     inkscape:window-x="0"
     inkscape:window-y="0"
     inkscape:window-maximized="1"
     inkscape:current-layer="g8"
     fit-margin-top="0"
     fit-margin-left="0"
     fit-margin-right="0"
     fit-margin-bottom="0" />
  <g
     id="g8"
     transform="translate(-1.8958522,-4.0151833)">
    <path
       d="m 98.44,71.52 c -1.45,4.38 -10.48,32.96 -11.12,34.74 -0.77,2.13 -1.85,4.1 -3.67,5.03 -3.08,1.57 -7.92,-0.11 -10.91,-1.29 -4.27,-1.68 -8.6,-3.27 -12.91,-4.86 -10.46,-3.88 -20.88,-7.88 -31.32,-11.81 -3.95,-1.49 -8.74,-2.7 -12.13,-5.25 -3.3,-2.47 -0.99,-7.26 0.2,-10.38 0.97,-2.55 2.03,-5.07 3.05,-7.6 2.34,-5.82 4.69,-11.63 7.03,-17.45 0.71,-1.75 1.27,-3.72 2.18,-5.38 0.31,-0.56 0.69,-0.9 1.11,-1.09 1.42,-0.63 3.36,0.37 4.85,0.83 1.95,0.61 3.9,1.21 5.85,1.82 5.23,1.63 10.46,3.25 15.69,4.88 5.87,1.83 11.74,3.65 17.61,5.48 5.16,1.61 10.32,3.21 15.48,4.82 1.87,0.58 3.74,1.17 5.61,1.75 0.97,0.3 2.03,0.53 2.96,0.92 1.83,0.78 0.86,3.56 0.44,4.84 z"
       style="fill:#f4f4f4;fill-opacity:1"
       id="path2"
       inkscape:connector-curvature="0" />
    <path
       d="m 123.8,29.81 c -0.92,-1.53 -1.97,-4.17 -3.56,-5.11 -3.01,-1.78 -6.3,-2.67 -9.62,-3.62 -4.2,-1.2 -8.4,-2.39 -12.61,-3.57 C 89.02,14.99 80,12.53 70.95,10.24 61.92,7.96 52.85,6.31 43.74,4.53 39.12,3.63 35.47,3.49 32.84,7.67 c -3.18,5.05 -5.03,11.16 -7.2,16.85 -2.35,6.16 -4.89,12.27 -7.36,18.38 -3.21,7.95 -6.41,15.91 -9.62,23.86 -1.4,3.46 -2.85,6.9 -4.17,10.39 -1.62,4.27 -4.78,10.82 -0.27,14.2 4.65,3.49 11.19,5.14 16.59,7.18 14.27,5.38 28.53,10.84 42.83,16.15 5.89,2.19 11.81,4.35 17.65,6.65 4.09,1.61 10.71,3.91 14.92,1.76 2.49,-1.27 3.96,-3.97 5,-6.88 0.89,-2.44 13.25,-41.52 15.23,-47.51 2,-6.06 3.87,-12.18 5.78,-18.27 1.02,-3.26 1.86,-6.59 2.74,-9.89 0.25,-0.89 0.66,-1.9 0.92,-2.87 0.12,-0.42 0.2,-0.84 0.23,-1.23 0.17,-2.39 -1.1,-4.63 -2.31,-6.63 z M 98.44,71.52 c -1.45,4.38 -10.48,32.96 -11.12,34.74 -0.77,2.13 -1.85,4.1 -3.67,5.03 -3.08,1.57 -7.92,-0.11 -10.91,-1.29 -4.27,-1.68 -8.6,-3.27 -12.91,-4.86 -10.46,-3.88 -20.88,-7.88 -31.32,-11.81 -3.95,-1.49 -8.74,-2.7 -12.13,-5.25 -3.3,-2.47 -0.99,-7.26 0.2,-10.38 0.97,-2.55 2.03,-5.07 3.05,-7.6 2.34,-5.82 4.69,-11.63 7.03,-17.45 0.71,-1.75 1.27,-3.72 2.18,-5.38 0.31,-0.56 0.69,-0.9 1.11,-1.09 1.42,-0.63 3.36,0.37 4.85,0.83 1.95,0.61 3.9,1.21 5.85,1.82 5.23,1.63 10.46,3.25 15.69,4.88 5.87,1.83 11.74,3.65 17.61,5.48 5.16,1.61 10.32,3.21 15.48,4.82 1.87,0.58 3.74,1.17 5.61,1.75 0.97,0.3 2.03,0.53 2.96,0.92 1.83,0.78 0.86,3.56 0.44,4.84 z"
       style="fill:#705599;fill-opacity:1"
       id="path4"
       inkscape:connector-curvature="0" />
    <path
       d="m 103.12,24.03 c -0.33,-0.33 -0.78,-0.58 -1.26,-0.78 -9.19,-3.8 -18.93,-5.32 -28.36,-8.26 -2.92,-0.91 -5.9,-1.67 -8.92,-2.1 -1.78,-0.25 -6.12,-1.36 -7.67,-0.45 -1.79,1.05 -2.31,3.82 -3.05,5.63 -1.92,4.72 -3.59,9.45 -5.21,14.27 -0.76,2.25 -1.8,4.46 -2.4,6.75 -0.44,1.68 0.35,2.1 1.65,2.54 0.2,0.07 0.41,0.13 0.64,0.21 2.4,0.78 4.78,1.58 7.19,2.31 l 0.25,0.07 c 4.1,1.32 9.08,2.91 12.81,4.11 0.19,0.06 0.41,0.13 0.62,0.19 7.71,2.43 20.61,5.62 20.61,5.62 1,0.28 2.08,0.48 2.94,-0.06 1.32,-0.81 1.85,-3.42 2.31,-4.74 1.59,-4.54 3.45,-8.98 5.14,-13.48 0.71,-1.89 1.21,-3.86 1.91,-5.75 0.25,-0.66 0.68,-1.53 1.01,-2.44 0.48,-1.32 0.73,-2.71 -0.21,-3.64 z m -5.15,3.67 c -0.34,1.34 -0.84,2.64 -1.3,3.94 -1.83,5.1 -3.62,10.22 -5.58,15.27 -0.19,0.48 -0.29,1.01 -0.54,1.46 -0.46,0.81 -0.74,1.47 -1.77,1.56 -0.74,0.06 -1.5,-0.21 -2.19,-0.39 -1.44,-0.38 -2.88,-0.76 -4.3,-1.21 -1.15,-0.37 -2.68,-0.86 -3.94,-1.27 l -0.08,-0.02 c -1.2,-0.36 -2.51,-0.64 -2.61,-2.14 -0.04,-0.58 0.33,-1.2 0.5,-1.73 2.08,-6.15 4.27,-12.28 6.57,-18.35 0.14,-0.37 0.3,-0.74 0.46,-1.1 0.09,-0.2 0.18,-0.43 0.32,-0.62 0.03,-0.05 0.05,-0.1 0.1,-0.14 0.7,-0.64 2.02,-0.32 2.8,-0.13 1.2,0.29 2.36,0.69 3.55,0.95 1.39,0.3 2.77,0.67 4.14,1.04 0.68,0.19 1.37,0.38 2.05,0.57 0.36,0.1 0.7,0.2 1.05,0.31 0.2,0.07 0.44,0.08 0.61,0.21 l 0.24,0.28 c 0.04,0.08 0.06,0.17 0.08,0.26 0.08,0.39 -0.06,0.87 -0.16,1.25 z"
       style="fill:#c6c6c6;fill-opacity:1"
       id="path6"
       inkscape:connector-curvature="0" />
  </g>
</svg>
