<?xml version="1.0" encoding="UTF-8" standalone="no"?>
<svg
   xmlns:dc="http://purl.org/dc/elements/1.1/"
   xmlns:cc="http://creativecommons.org/ns#"
   xmlns:rdf="http://www.w3.org/1999/02/22-rdf-syntax-ns#"
   xmlns:svg="http://www.w3.org/2000/svg"
   xmlns="http://www.w3.org/2000/svg"
   xmlns:sodipodi="http://sodipodi.sourceforge.net/DTD/sodipodi-0.dtd"
   xmlns:inkscape="http://www.inkscape.org/namespaces/inkscape"
   width="1.261875in"
   height="1.2753646in"
   version="1.1"
   id="svg8"
   sodipodi:docname="emoji_u2699.svg"
   inkscape:version="0.92.1 r">
  <metadata
     id="metadata14">
    <rdf:RDF>
      <cc:Work
         rdf:about="">
        <dc:format>image/svg+xml</dc:format>
        <dc:type
           rdf:resource="http://purl.org/dc/dcmitype/StillImage" />
        <dc:title></dc:title>
      </cc:Work>
    </rdf:RDF>
  </metadata>
  <defs
     id="defs12" />
  <sodipodi:namedview
     pagecolor="#ffffff"
     bordercolor="#666666"
     borderopacity="1"
     objecttolerance="10"
     gridtolerance="10"
     guidetolerance="10"
     inkscape:pageopacity="0"
     inkscape:pageshadow="2"
     inkscape:window-width="1366"
     inkscape:window-height="739"
     id="namedview10"
     showgrid="false"
     inkscape:zoom="5.2149125"
     inkscape:cx="96.264275"
     inkscape:cy="131.80351"
     inkscape:window-x="0"
     inkscape:window-y="0"
     inkscape:window-maximized="1"
     inkscape:current-layer="XMLID_5_"
     fit-margin-top="0"
     fit-margin-left="0"
     fit-margin-right="0"
     fit-margin-bottom="0"
     units="in" />
  <g
     id="XMLID_5_"
     transform="translate(-2.86,-2.475)">
    <path
       id="XMLID_24_"
       d="m 63.31,52.21 c -6.84,0 -12.43,5.29 -12.94,12 -0.06,0.49 -0.09,0.99 -0.09,1.5 0,7.19 5.84,13.04 13.04,13.04 7.2,0 13.04,-5.84 13.04,-13.04 0,-0.51 -0.04,-1.01 -0.09,-1.5 -0.52,-6.71 -6.11,-12 -12.96,-12 z"
       style="fill:none"
       inkscape:connector-curvature="0" />
    <path
       id="XMLID_37_"
       d="m 110.89,65.2 c 0,-0.8 -0.02,-1.59 -0.06,-2.37 L 124,58.21 c -0.13,-5 -1,-9.95 -2.59,-14.69 l -15.33,0.84 c -1.61,-3.29 -3.59,-6.36 -5.89,-9.17 l 8.07,-13.6 C 104.95,17.84 101.09,14.61 96.83,12 L 85.1,22.98 C 81.37,21.06 77.35,19.61 73.12,18.73 L 70.54,3.03 c -4.95,-0.74 -9.97,-0.74 -14.92,0 l -1.89,15.7 c -4.1,0.85 -7.99,2.24 -11.63,4.07 L 30.04,12.45 c -4.26,2.61 -8.12,5.85 -11.43,9.59 l 8.35,12.8 c -2.04,2.45 -3.84,5.11 -5.37,7.95 L 5.46,42.59 C 3.87,47.33 3,52.29 2.86,57.29 l 13.28,4.03 c -0.1,1.28 -0.17,2.58 -0.17,3.89 0,2.86 0.27,5.66 0.75,8.39 L 4.61,83.51 c 1.83,4.65 4.35,9.01 7.46,12.92 L 23.86,91.4 c 3.15,4.75 7.13,8.89 11.74,12.23 l -3.05,16.17 c 4.4,2.39 9.12,4.11 14.02,5.1 l 6.75,-13.33 c 3.26,0.71 6.64,1.09 10.11,1.09 3.24,0 6.4,-0.33 9.46,-0.94 l 7.41,13.19 c 4.9,-1 9.63,-2.72 14.02,-5.1 l -3.67,-15.73 c 4.88,-3.42 9.08,-7.73 12.37,-12.7 l 11.77,4.44 c 3.11,-3.91 5.63,-8.27 7.46,-12.92 L 110.1,73.79 c 0.51,-2.79 0.79,-5.66 0.79,-8.59 z M 63.43,95.32 c -16.34,0 -29.58,-13.24 -29.58,-29.58 0,-16.34 13.24,-29.58 29.58,-29.58 16.34,0 29.58,13.24 29.58,29.58 0,16.34 -13.24,29.58 -29.58,29.58 z"
       style="fill:#705599;fill-opacity:1;stroke:none"
       inkscape:connector-curvature="0" />
    <path
       id="XMLID_41_"
       d="m 63.43,36.15 c -16.34,0 -29.58,13.24 -29.58,29.58 0,16.34 13.24,29.58 29.58,29.58 16.34,0 29.58,-13.24 29.58,-29.58 0,-16.34 -13.24,-29.58 -29.58,-29.58 z m -0.12,42.59 c -7.19,0 -13.04,-5.84 -13.04,-13.04 0,-0.51 0.04,-1.01 0.09,-1.5 0.51,-6.71 6.1,-12 12.94,-12 6.84,0 12.43,5.29 12.94,12 0.06,0.49 0.09,0.99 0.09,1.5 0.02,7.2 -5.82,13.04 -13.02,13.04 z"
       style="fill:#c7c7c7;fill-opacity:1;stroke:none"
       inkscape:connector-curvature="0" />
  </g>
  <path
     id="XMLID_69_"
     d="m 24.49,54.165 c -0.22,0 -0.45,-0.03 -0.68,-0.08 -1.49,-0.37 -2.4,-1.89 -2.02,-3.38 0.47,-1.89 1.11,-3.75 1.89,-5.53 0.62,-1.41 2.26,-2.05 3.67,-1.43 1.41,0.62 2.05,2.26 1.43,3.67 -0.66,1.5 -1.19,3.07 -1.59,4.65 -0.32,1.25 -1.45,2.1 -2.7,2.1 z"
     style="fill:#ffffff"
     inkscape:connector-curvature="0" />
  <path
     id="XMLID_68_"
     d="m 31.1,42.665 c -0.54,0 -1.08,-0.15 -1.56,-0.48 -1.27,-0.86 -1.61,-2.59 -0.75,-3.87 3.85,-5.7 9.23,-10.13 15.54,-12.8 1.42,-0.6 3.05,0.06 3.65,1.48 0.6,1.42 -0.06,3.05 -1.48,3.65 -5.32,2.25 -9.85,5.98 -13.1,10.79 -0.53,0.8 -1.41,1.23 -2.3,1.23 z"
     style="fill:#ffffff"
     inkscape:connector-curvature="0" />
</svg>
